<svg xmlns="http://www.w3.org/2000/svg" viewBox="0 0 128 128" width="128" height="128">
  <defs>
    <linearGradient id="bgGradient" x1="0%" y1="0%" x2="100%" y2="100%">
      <stop offset="0%" style="stop-color:#1a1a1a;stop-opacity:1" />
      <stop offset="100%" style="stop-color:#000000;stop-opacity:1" />
    </linearGradient>
    <filter id="shadow" x="-50%" y="-50%" width="200%" height="200%">
      <feGaussianBlur in="SourceAlpha" stdDeviation="2"/>
      <feOffset dx="0" dy="2" result="offsetblur"/>
      <feComponentTransfer>
        <feFuncA type="linear" slope="0.3"/>
      </feComponentTransfer>
      <feMerge>
        <feMergeNode/>
        <feMergeNode in="SourceGraphic"/>
      </feMerge>
    </filter>
  </defs>
  
  <!-- Background Circle -->
  <circle cx="64" cy="64" r="60" fill="url(#bgGradient)" filter="url(#shadow)"/>
  
  <!-- Skull Design -->
  <g transform="translate(64, 62)">
    <!-- Skull Head -->
    <ellipse cx="0" cy="-5" rx="28" ry="32" fill="#ffffff" opacity="0.95"/>
    
    <!-- Top of skull (rounded) -->
    <path d="M -28 -5 Q -28 -37 0 -37 Q 28 -37 28 -5" fill="#ffffff" opacity="0.95"/>
    
    <!-- Eye Sockets (larger and more menacing) -->
    <ellipse cx="-12" cy="-8" rx="7" ry="10" fill="#000000" opacity="0.9"/>
    <ellipse cx="12" cy="-8" rx="7" ry="10" fill="#000000" opacity="0.9"/>
    
    <!-- Eye highlights for depth -->
    <ellipse cx="-10" cy="-10" rx="2.5" ry="3" fill="#1a1a1a" opacity="0.6"/>
    <ellipse cx="14" cy="-10" rx="2.5" ry="3" fill="#1a1a1a" opacity="0.6"/>
    
    <!-- Nose hole (triangle) -->
    <path d="M -4 3 L 0 10 L 4 3 Z" fill="#000000" opacity="0.9"/>
    
    <!-- Jaw/Teeth area -->
    <path d="M -20 15 Q -20 27 -15 32 L -10 32 L -10 27 L -5 27 L -5 32 L 0 32 L 0 27 L 5 27 L 5 32 L 10 32 L 10 27 L 15 32 Q 20 27 20 15 L 20 12 L -20 12 Z" 
          fill="#ffffff" opacity="0.95"/>
    
    <!-- Teeth separators -->
    <line x1="-10" y1="27" x2="-10" y2="32" stroke="#000000" stroke-width="1.5" opacity="0.3"/>
    <line x1="-5" y1="27" x2="-5" y2="32" stroke="#000000" stroke-width="1.5" opacity="0.3"/>
    <line x1="0" y1="27" x2="0" y2="32" stroke="#000000" stroke-width="1.5" opacity="0.3"/>
    <line x1="5" y1="27" x2="5" y2="32" stroke="#000000" stroke-width="1.5" opacity="0.3"/>
    <line x1="10" y1="27" x2="10" y2="32" stroke="#000000" stroke-width="1.5" opacity="0.3"/>
    
    <!-- Jaw line detail -->
    <path d="M -20 12 Q -22 18 -20 24" stroke="#cccccc" stroke-width="1.5" fill="none" opacity="0.4"/>
    <path d="M 20 12 Q 22 18 20 24" stroke="#cccccc" stroke-width="1.5" fill="none" opacity="0.4"/>
  </g>
  
  <!-- Credit Card Icon at Bottom -->
  <g transform="translate(64, 102)">
    <rect x="-12" y="-6" width="24" height="12" rx="2" fill="#ffffff" opacity="0.9"/>
    <rect x="-12" y="-4" width="24" height="3" fill="#1a1a1a" opacity="0.8"/>
    <rect x="-10" y="1" width="8" height="2" rx="0.5" fill="#1a1a1a" opacity="0.6"/>
  </g>
</svg>
